<?xml version="1.0" encoding="UTF-8"?>
<!DOCTYPE svg PUBLIC "-//W3C//DTD SVG 1.1//EN" "http://www.w3.org/Graphics/SVG/1.1/DTD/svg11.dtd">
<!-- Creator: CorelDRAW 2020 (64-Bit) -->
<svg xmlns="http://www.w3.org/2000/svg" xml:space="preserve" width="78.8641mm" height="78.8641mm" version="1.1" style="shape-rendering:geometricPrecision; text-rendering:geometricPrecision; image-rendering:optimizeQuality; fill-rule:evenodd; clip-rule:evenodd"
viewBox="0 0 1040.53 1040.53"
 xmlns:xlink="http://www.w3.org/1999/xlink"
 xmlns:xodm="http://www.corel.com/coreldraw/odm/2003">
 <defs>
  <style type="text/css">
   <![CDATA[
    .fil3 {fill:none}
    .fil5 {fill:white}
    .fil8 {fill:white}
    .fil7 {fill:white;fill-rule:nonzero}
    .fil1 {fill:url(#id4)}
    .fil0 {fill:url(#id5)}
    .fil6 {fill:url(#id6)}
    .fil4 {fill:url(#id7)}
    .fil2 {fill:url(#id8)}
   ]]>
  </style>
      <clipPath id="id0">
       <path d="M394.16 407.11l74.41 74.42c-5.15,2.99 -9.36,7.02 -11.37,13.5 -0.45,1.46 -0.79,3.03 -1.01,4.7l-8.47 -8.47 -39.3 39.3 -71.61 -71.6 -19.9 20.44 90.1 90.1 51.29 -51.76c0.1,0.27 0.21,0.54 0.32,0.81 2.22,5.49 5.87,10.47 11.16,13.8l-75.62 75.62c-5.1,5.1 -13.45,5.1 -18.55,0l-91.15 -91.15c-5.1,-5.1 -5.1,-13.45 0,-18.55l91.15 -91.15c5.1,-5.1 13.45,-5.1 18.55,0z"/>
      </clipPath>
      <clipPath id="id1">
       <path d="M523.98 445.4c-2.97,0 -5.38,2.41 -5.38,5.38 0,2.97 2.41,5.38 5.38,5.38 0.78,0 1.52,-0.17 2.19,-0.47l13.28 21.02c7.9,-7.75 18.72,-12.53 30.66,-12.52 2.1,0 4.16,0.15 6.17,0.44l16.28 0c0.83,0 1.42,-0.27 1.74,-0.65 0.08,-0.09 0.14,-0.19 0.18,-0.28l-0.04 -0c-0.86,-0.32 -1.52,-0.95 -1.89,-1.72 -9.23,-0.17 -15.99,-7.79 -20.72,-21.52 2.12,-0.72 3.65,-2.73 3.65,-5.1 0,-2.97 -2.41,-5.38 -5.38,-5.38 -2.97,0 -5.38,2.41 -5.38,5.38 0,2.37 1.53,4.37 3.65,5.1 -7.57,21.95 -20.31,28.28 -40.05,13.54 0.67,-0.9 1.06,-2.01 1.06,-3.21 0,-2.97 -2.41,-5.38 -5.38,-5.38zm76.73 31.32l4.18 -6.62c-0.01,-0.16 -0.03,-0.32 -0.05,-0.49 -0.14,-1.05 -0.5,-2.06 -1.07,-2.93 -0.58,-0.88 -1.41,-1.62 -2.52,-2.13l-0.11 0.61c-0.27,1.15 -0.84,2.28 -1.67,3.25 -1.25,1.46 -3.1,2.59 -5.42,2.94 2.39,1.57 4.62,3.37 6.66,5.37zm8.72 -13.81l4.55 -7.21c0.67,0.3 1.41,0.47 2.19,0.47 2.97,0 5.38,-2.41 5.38,-5.38 0,-2.97 -2.41,-5.38 -5.38,-5.38 -2.97,0 -5.38,2.41 -5.38,5.38 0,1.21 0.39,2.32 1.06,3.21 -2.51,1.87 -4.9,3.41 -7.19,4.61 2.02,1.05 3.6,2.54 4.76,4.3zm-14.92 0.72c0.01,0.02 0.02,0.04 0.01,0.01l-0.01 -0.01z"/>
      </clipPath>
        <clipPath id="id2">
        </clipPath>
        <clipPath id="id3">
         <path d="M523.98 445.4c-2.97,0 -5.38,2.41 -5.38,5.38 0,2.97 2.41,5.38 5.38,5.38 0.78,0 1.52,-0.17 2.19,-0.47l13.28 21.02c7.9,-7.75 18.72,-12.53 30.66,-12.52 2.1,0 4.16,0.15 6.17,0.44l16.28 0c0.83,0 1.42,-0.27 1.74,-0.65 0.08,-0.09 0.14,-0.19 0.18,-0.28l-0.04 -0c-0.86,-0.32 -1.52,-0.95 -1.89,-1.72 -9.23,-0.17 -15.99,-7.79 -20.72,-21.52 2.12,-0.72 3.65,-2.73 3.65,-5.1 0,-2.97 -2.41,-5.38 -5.38,-5.38 -2.97,0 -5.38,2.41 -5.38,5.38 0,2.37 1.53,4.37 3.65,5.1 -7.57,21.95 -20.31,28.28 -40.05,13.54 0.67,-0.9 1.06,-2.01 1.06,-3.21 0,-2.97 -2.41,-5.38 -5.38,-5.38zm76.73 31.32l4.18 -6.62c-0.01,-0.16 -0.03,-0.32 -0.05,-0.49 -0.14,-1.05 -0.5,-2.06 -1.07,-2.93 -0.58,-0.88 -1.41,-1.62 -2.52,-2.13l-0.11 0.61c-0.27,1.15 -0.84,2.28 -1.67,3.25 -1.25,1.46 -3.1,2.59 -5.42,2.94 2.39,1.57 4.62,3.37 6.66,5.37zm8.72 -13.81l4.55 -7.21c0.67,0.3 1.41,0.47 2.19,0.47 2.97,0 5.38,-2.41 5.38,-5.38 0,-2.97 -2.41,-5.38 -5.38,-5.38 -2.97,0 -5.38,2.41 -5.38,5.38 0,1.21 0.39,2.32 1.06,3.21 -2.51,1.87 -4.9,3.41 -7.19,4.61 2.02,1.05 3.6,2.54 4.76,4.3zm-14.92 0.72c0.01,0.02 0.02,0.04 0.01,0.01l-0.01 -0.01z"/>
        </clipPath>
  <linearGradient id="id4" gradientUnits="userSpaceOnUse" x1="434.03" y1="548.46" x2="316.65" y2="431.08">
   <stop offset="0" style="stop-opacity:1; stop-color:#F5B443"/>
   <stop offset="0.0823529" style="stop-opacity:1; stop-color:#CC8A28"/>
   <stop offset="0.14902" style="stop-opacity:1; stop-color:#A35F0D"/>
   <stop offset="0.270588" style="stop-opacity:1; stop-color:#F5A119"/>
   <stop offset="0.380392" style="stop-opacity:1; stop-color:#FBB34E"/>
   <stop offset="0.529412" style="stop-opacity:1; stop-color:#FEBA61"/>
   <stop offset="0.619608" style="stop-opacity:1; stop-color:#FDB755"/>
   <stop offset="0.721569" style="stop-opacity:1; stop-color:#F8AD3B"/>
   <stop offset="0.831373" style="stop-opacity:1; stop-color:#E79324"/>
   <stop offset="0.941176" style="stop-opacity:1; stop-color:#EEA333"/>
   <stop offset="1" style="stop-opacity:1; stop-color:#F5B342"/>
  </linearGradient>
  <linearGradient id="id5" gradientUnits="userSpaceOnUse" x1="380.83" y1="710.68" x2="1314.76" y2="-906.93">
   <stop offset="0" style="stop-opacity:1; stop-color:#000C52"/>
   <stop offset="1" style="stop-opacity:1; stop-color:#005CCE"/>
  </linearGradient>
  <linearGradient id="id6" gradientUnits="userSpaceOnUse" xlink:href="#id4" x1="717.29" y1="603.19" x2="717.29" y2="528.64">
  </linearGradient>
  <linearGradient id="id7" gradientUnits="userSpaceOnUse" xlink:href="#id4" x1="600.92" y1="484.87" x2="600.92" y2="400.99">
  </linearGradient>
  <linearGradient id="id8" gradientUnits="userSpaceOnUse" x1="9.73" y1="463.53" x2="165.12" y2="623.89">
   <stop offset="0" style="stop-opacity:1; stop-color:#F87102"/>
   <stop offset="0.278431" style="stop-opacity:1; stop-color:#F87102"/>
   <stop offset="0.431373" style="stop-opacity:1; stop-color:#F98909"/>
   <stop offset="0.6" style="stop-opacity:1; stop-color:#FFA04D"/>
   <stop offset="0.721569" style="stop-opacity:1; stop-color:#F98909"/>
   <stop offset="0.858824" style="stop-opacity:1; stop-color:#F87102"/>
   <stop offset="1" style="stop-opacity:1; stop-color:#F87102"/>
  </linearGradient>
 </defs>
 <g id="Capa_x0020_1">
  <metadata id="CorelCorpID_0Corel-Layer"/>
  <rect class="fil0" x="-0" y="-0" width="1040.53" height="1040.53"/>
  <g id="_2188022116448">
   <g>
    <g>
     <path class="fil1" d="M394.16 407.11l74.41 74.42c-5.15,2.99 -9.36,7.02 -11.37,13.5 -0.45,1.46 -0.79,3.03 -1.01,4.7l-8.47 -8.47 -39.3 39.3 -71.61 -71.6 -19.9 20.44 90.1 90.1 51.29 -51.76c0.1,0.27 0.21,0.54 0.32,0.81 2.22,5.49 5.87,10.47 11.16,13.8l-75.62 75.62c-5.1,5.1 -13.45,5.1 -18.55,0l-91.15 -91.15c-5.1,-5.1 -5.1,-13.45 0,-18.55l91.15 -91.15c5.1,-5.1 13.45,-5.1 18.55,0z"/>
     <g style="clip-path:url(#id0)">
      <g>
       <path id="1" class="fil2" d="M125.55 436.99l101.94 101.94c5.5,5.5 5.5,14.5 0,19.99l-101.94 101.94c-5.5,5.5 -14.5,5.5 -19.99,0l-101.94 -101.94c-5.5,-5.5 -5.5,-14.5 0,-19.99l101.94 -101.94c5.5,-5.5 14.5,-5.5 19.99,0z"/>
      </g>
     </g>
     <path class="fil3" d="M394.16 407.11l74.41 74.42c-5.15,2.99 -9.36,7.02 -11.37,13.5 -0.45,1.46 -0.79,3.03 -1.01,4.7l-8.47 -8.47 -39.3 39.3 -71.61 -71.6 -19.9 20.44 90.1 90.1 51.29 -51.76c0.1,0.27 0.21,0.54 0.32,0.81 2.22,5.49 5.87,10.47 11.16,13.8l-75.62 75.62c-5.1,5.1 -13.45,5.1 -18.55,0l-91.15 -91.15c-5.1,-5.1 -5.1,-13.45 0,-18.55l91.15 -91.15c5.1,-5.1 13.45,-5.1 18.55,0z"/>
     <path class="fil4" d="M523.98 445.4c-2.97,0 -5.38,2.41 -5.38,5.38 0,2.97 2.41,5.38 5.38,5.38 0.78,0 1.52,-0.17 2.19,-0.47l13.28 21.02c7.9,-7.75 18.72,-12.53 30.66,-12.52 2.1,0 4.16,0.15 6.17,0.44l16.28 0c0.83,0 1.42,-0.27 1.74,-0.65 0.08,-0.09 0.14,-0.19 0.18,-0.28l-0.04 -0c-0.86,-0.32 -1.52,-0.95 -1.89,-1.72 -9.23,-0.17 -15.99,-7.79 -20.72,-21.52 2.12,-0.72 3.65,-2.73 3.65,-5.1 0,-2.97 -2.41,-5.38 -5.38,-5.38 -2.97,0 -5.38,2.41 -5.38,5.38 0,2.37 1.53,4.37 3.65,5.1 -7.57,21.95 -20.31,28.28 -40.05,13.54 0.67,-0.9 1.06,-2.01 1.06,-3.21 0,-2.97 -2.41,-5.38 -5.38,-5.38zm76.73 31.32l4.18 -6.62c-0.01,-0.16 -0.03,-0.32 -0.05,-0.49 -0.14,-1.05 -0.5,-2.06 -1.07,-2.93 -0.58,-0.88 -1.41,-1.62 -2.52,-2.13l-0.11 0.61c-0.27,1.15 -0.84,2.28 -1.67,3.25 -1.25,1.46 -3.1,2.59 -5.42,2.94 2.39,1.57 4.62,3.37 6.66,5.37zm8.72 -13.81l4.55 -7.21c0.67,0.3 1.41,0.47 2.19,0.47 2.97,0 5.38,-2.41 5.38,-5.38 0,-2.97 -2.41,-5.38 -5.38,-5.38 -2.97,0 -5.38,2.41 -5.38,5.38 0,1.21 0.39,2.32 1.06,3.21 -2.51,1.87 -4.9,3.41 -7.19,4.61 2.02,1.05 3.6,2.54 4.76,4.3zm-14.92 0.72c0.01,0.02 0.02,0.04 0.01,0.01l-0.01 -0.01z"/>
     <g style="clip-path:url(#id1)">
      <g>
       <g>
       </g>
       <g style="clip-path:url(#id2)">
        <image x="672.38" y="415.57" width="162.54" height="86.77" xlink:href="LOGO SVG_Images\LOGO SVG_ImgID1.png"/>
       </g>
       <g style="clip-path:url(#id3)">
       </g>
      </g>
     </g>
     <path class="fil3" d="M523.98 445.4c-2.97,0 -5.38,2.41 -5.38,5.38 0,2.97 2.41,5.38 5.38,5.38 0.78,0 1.52,-0.17 2.19,-0.47l13.28 21.02c7.9,-7.75 18.72,-12.53 30.66,-12.52 2.1,0 4.16,0.15 6.17,0.44l16.28 0c0.83,0 1.42,-0.27 1.74,-0.65 0.08,-0.09 0.14,-0.19 0.18,-0.28l-0.04 -0c-0.86,-0.32 -1.52,-0.95 -1.89,-1.72 -9.23,-0.17 -15.99,-7.79 -20.72,-21.52 2.12,-0.72 3.65,-2.73 3.65,-5.1 0,-2.97 -2.41,-5.38 -5.38,-5.38 -2.97,0 -5.38,2.41 -5.38,5.38 0,2.37 1.53,4.37 3.65,5.1 -7.57,21.95 -20.31,28.28 -40.05,13.54 0.67,-0.9 1.06,-2.01 1.06,-3.21 0,-2.97 -2.41,-5.38 -5.38,-5.38zm76.73 31.32l4.18 -6.62c-0.01,-0.16 -0.03,-0.32 -0.05,-0.49 -0.14,-1.05 -0.5,-2.06 -1.07,-2.93 -0.58,-0.88 -1.41,-1.62 -2.52,-2.13l-0.11 0.61c-0.27,1.15 -0.84,2.28 -1.67,3.25 -1.25,1.46 -3.1,2.59 -5.42,2.94 2.39,1.57 4.62,3.37 6.66,5.37zm8.72 -13.81l4.55 -7.21c0.67,0.3 1.41,0.47 2.19,0.47 2.97,0 5.38,-2.41 5.38,-5.38 0,-2.97 -2.41,-5.38 -5.38,-5.38 -2.97,0 -5.38,2.41 -5.38,5.38 0,1.21 0.39,2.32 1.06,3.21 -2.51,1.87 -4.9,3.41 -7.19,4.61 2.02,1.05 3.6,2.54 4.76,4.3zm-14.92 0.72c0.01,0.02 0.02,0.04 0.01,0.01l-0.01 -0.01z"/>
     <path class="fil5" d="M695.83 507.97c0.01,-22.03 -17.84,-39.91 -39.87,-39.92 -22.03,-0.01 -39.9,17.84 -39.92,39.87 -0.01,22.03 17.83,39.9 39.86,39.92 22.03,0.01 39.91,-17.83 39.92,-39.86zm-61.28 -0.04c0.01,-11.81 9.59,-21.38 21.4,-21.37 11.81,0.01 21.38,9.58 21.37,21.39 -0,11.81 -9.58,21.38 -21.39,21.37 -11.81,-0.01 -21.38,-9.59 -21.37,-21.4z"/>
     <path class="fil5" d="M524.16 507.99c0.01,-22.12 -17.9,-40.05 -40.01,-40.06 -22.12,-0.02 -40.05,17.9 -40.07,40.01 -0.01,22.11 17.9,40.05 40.02,40.06 22.11,0.01 40.05,-17.9 40.06,-40.01zm-61.5 -0.04c0.01,-11.85 9.62,-21.45 21.47,-21.44 11.85,0.01 21.45,9.62 21.45,21.47 -0.01,11.85 -9.63,21.45 -21.48,21.45 -11.85,-0.01 -21.45,-9.62 -21.45,-21.48z"/>
     <path class="fil6" d="M674.22 563.81l0 -4.68c0,-2.57 2.39,-4.68 5.32,-4.68l5.32 0 0 46.33 -10.64 0 0 -36.97zm21.33 45.24c0,-18.32 0,-36.35 0,-54.59l10.76 0 0 3.5c15.25,-9.57 35.49,1.3 35.49,19.64l0 0c0,18.35 -20.25,29.22 -35.49,19.64l0 11.8 -10.76 0zm35.49 -31.45c0,-6.86 -5.56,-12.42 -12.42,-12.42 -6.29,0 -11.49,4.67 -12.31,10.74l0 3.38c0.82,6.06 6.02,10.73 12.31,10.73 6.86,0 12.42,-5.56 12.42,-12.42zm-88.45 10.45l13.39 -33.59 10.15 0 -18.46 46.32 -10.15 0 -18.46 -46.32 10.15 0 13.39 33.59z"/>
     <path class="fil5" d="M609.97 507.97c0.01,-22.03 -17.84,-39.91 -39.87,-39.92 -22.03,-0.01 -39.9,17.84 -39.92,39.87 -0.01,22.03 17.84,39.9 39.87,39.92 22.03,0.01 39.91,-17.83 39.92,-39.86zm-61.28 -0.04c0.01,-11.81 9.59,-21.38 21.4,-21.37 11.81,0.01 21.37,9.58 21.37,21.39 -0,11.81 -9.58,21.38 -21.39,21.37 -11.81,-0.01 -21.37,-9.59 -21.37,-21.4z"/>
     <path class="fil7" d="M757.58 492.82c-0.55,-14.07 -10.97,-24.15 -29.58,-24.15 -17.95,0 -26.92,9.42 -26.92,22.6 0,9.31 4.43,14.63 12.3,18.17 5.21,2.33 11.08,3.66 20.16,5.65 9.2,1.99 11.41,4.99 11.41,9.31 0,6.54 -5.21,10.41 -14.29,10.41 -9.86,0 -16.17,-4.65 -16.4,-12.19l-14.85 0c0.33,16.51 12.96,24.6 31.13,24.6 17.17,0 29.36,-7.2 29.36,-23.38 0,-10.41 -5.1,-14.96 -11.52,-17.84 -5.43,-2.44 -13.52,-4.43 -21.83,-6.43 -8.2,-1.99 -11.41,-4.65 -11.41,-9.31 0,-5.54 4.54,-8.64 13.18,-8.64 9.31,0 13.85,3.66 14.63,11.19l14.62 0z"/>
     <path class="fil8" d="M570.1 468.05l22.45 0c5.34,0 7.3,-5.99 3.05,-7.54 16.07,-1.75 16.23,18.71 4.33,20.97l-29.83 0 0 -13.43z"/>
     <path class="fil5" d="M583.08 551.09l-6.17 0c-13.08,-0.16 -21.2,-0.87 -28.63,-5.4l-8.25 14.29 -2.28 3.95c3.12,1.77 6.33,3.26 9.51,4.4 7.23,2.82 14.07,2.9 17.84,3.06l6.24 0 11.24 0c4.98,0 9.05,4.07 9.05,9.04l0 0c0,4.97 -4.07,9.04 -9.05,9.04l-23.47 0 -11.3 20.15 15.42 0c11.09,-0.19 25.46,1.15 35.27,-4.72 13.07,-7.83 17.35,-25.75 9.84,-39.19 -0.55,-0.98 -1.13,-1.9 -1.72,-2.76l-0.03 -0.04c-5.36,-7.17 -13.92,-11.84 -23.52,-11.84z"/>
     <path class="fil7" d="M483.5 631.05l2.08 0c-0.09,1.89 -0.75,3.39 -1.96,4.52 -1.22,1.12 -2.79,1.68 -4.71,1.68 -2.22,0 -3.96,-0.75 -5.21,-2.23 -1.26,-1.49 -1.89,-3.56 -1.89,-6.19 0,-2.43 0.66,-4.37 1.98,-5.8 1.32,-1.43 3.1,-2.15 5.34,-2.15 1.78,0 3.24,0.45 4.38,1.36 1.14,0.91 1.8,2.15 1.97,3.71l-2.1 0c-0.2,-1.03 -0.68,-1.82 -1.42,-2.37 -0.75,-0.55 -1.72,-0.83 -2.92,-0.83 -1.6,0 -2.83,0.55 -3.71,1.66 -0.88,1.1 -1.32,2.66 -1.32,4.67 0,1.9 0.46,3.42 1.37,4.56 0.92,1.15 2.13,1.72 3.64,1.72 1.29,0 2.35,-0.4 3.17,-1.18 0.82,-0.79 1.26,-1.84 1.32,-3.13zm17.1 -1.99c0,1.99 0.46,3.55 1.39,4.67 0.93,1.12 2.22,1.68 3.86,1.68 1.64,0 2.92,-0.56 3.85,-1.68 0.92,-1.12 1.38,-2.68 1.38,-4.67 0,-2 -0.46,-3.56 -1.38,-4.67 -0.92,-1.12 -2.2,-1.68 -3.85,-1.68 -1.65,0 -2.93,0.56 -3.86,1.68 -0.93,1.12 -1.39,2.67 -1.39,4.67zm-2.21 0c0,-2.57 0.66,-4.57 1.98,-6.02 1.33,-1.44 3.15,-2.17 5.49,-2.17 2.33,0 4.15,0.72 5.47,2.16 1.31,1.44 1.97,3.45 1.97,6.02 0,2.56 -0.66,4.57 -1.97,6.02 -1.32,1.44 -3.14,2.17 -5.47,2.17 -2.34,0 -4.16,-0.72 -5.49,-2.17 -1.32,-1.45 -1.98,-3.45 -1.98,-6.02zm30.68 -5.96l0 5.27 3.65 0c1.32,0 2.25,-0.21 2.8,-0.63 0.54,-0.42 0.82,-1.13 0.82,-2.11 0,-0.92 -0.25,-1.57 -0.77,-1.95 -0.51,-0.38 -1.46,-0.57 -2.85,-0.57l-3.65 0zm-2.1 -1.81l6.11 0c0.99,0 1.72,0.04 2.19,0.13 0.47,0.09 0.89,0.23 1.26,0.42 0.66,0.36 1.17,0.86 1.51,1.5 0.35,0.64 0.52,1.39 0.52,2.26 0,0.83 -0.18,1.55 -0.54,2.14 -0.36,0.59 -0.91,1.06 -1.62,1.4 0.61,0.17 1.05,0.45 1.31,0.85 0.26,0.4 0.42,1.08 0.49,2.03l0.18 2.56c0.03,0.55 0.11,0.96 0.22,1.23 0.11,0.27 0.27,0.46 0.5,0.58l0 0.43 -2.47 0c-0.2,-0.32 -0.34,-1.01 -0.42,-2.08l0 -0.06 -0.13 -2.03c-0.07,-1.04 -0.3,-1.71 -0.67,-2.02 -0.38,-0.31 -1.32,-0.46 -2.83,-0.46l-3.46 0 0 6.65 -2.12 0 0 -15.53zm27.66 7.1l3.59 0c1.25,0 2.12,-0.2 2.61,-0.59 0.49,-0.4 0.74,-1.07 0.74,-2.03 0,-0.92 -0.24,-1.58 -0.74,-1.99 -0.49,-0.4 -1.31,-0.6 -2.46,-0.6l-3.75 0 0 5.21zm-2.15 8.42l0 -15.53 5.8 0c0.94,0 1.66,0.05 2.15,0.14 0.49,0.09 0.93,0.24 1.32,0.45 0.64,0.34 1.13,0.85 1.47,1.53 0.34,0.67 0.51,1.46 0.51,2.37 0,0.86 -0.17,1.63 -0.51,2.29 -0.34,0.66 -0.84,1.19 -1.5,1.58 -0.38,0.23 -0.82,0.39 -1.33,0.48 -0.51,0.1 -1.35,0.14 -2.52,0.14l-3.25 0 0 6.54 -2.15 0zm26.3 -7.75c0,1.99 0.46,3.55 1.39,4.67 0.93,1.12 2.22,1.68 3.86,1.68 1.64,0 2.92,-0.56 3.85,-1.68 0.92,-1.12 1.38,-2.68 1.38,-4.67 0,-2 -0.46,-3.56 -1.38,-4.67 -0.92,-1.12 -2.2,-1.68 -3.85,-1.68 -1.65,0 -2.93,0.56 -3.86,1.68 -0.93,1.12 -1.39,2.67 -1.39,4.67zm-2.21 0c0,-2.57 0.66,-4.57 1.98,-6.02 1.32,-1.44 3.15,-2.17 5.49,-2.17 2.33,0 4.15,0.72 5.47,2.16 1.31,1.44 1.97,3.45 1.97,6.02 0,2.56 -0.66,4.57 -1.97,6.02 -1.32,1.44 -3.14,2.17 -5.47,2.17 -2.34,0 -4.16,-0.72 -5.49,-2.17 -1.32,-1.45 -1.98,-3.45 -1.98,-6.02zm30.68 -5.96l0 5.27 3.65 0c1.32,0 2.25,-0.21 2.8,-0.63 0.54,-0.42 0.82,-1.13 0.82,-2.11 0,-0.92 -0.25,-1.57 -0.77,-1.95 -0.52,-0.38 -1.46,-0.57 -2.85,-0.57l-3.65 0zm-2.1 -1.81l6.11 0c0.99,0 1.72,0.04 2.18,0.13 0.47,0.09 0.89,0.23 1.25,0.42 0.66,0.36 1.17,0.86 1.52,1.5 0.35,0.64 0.52,1.39 0.52,2.26 0,0.83 -0.18,1.55 -0.54,2.14 -0.37,0.59 -0.91,1.06 -1.63,1.4 0.61,0.17 1.05,0.45 1.31,0.85 0.26,0.4 0.42,1.08 0.49,2.03l0.18 2.56c0.03,0.55 0.11,0.96 0.22,1.23 0.11,0.27 0.27,0.46 0.5,0.58l0 0.43 -2.47 0c-0.2,-0.32 -0.34,-1.01 -0.42,-2.08l0 -0.06 -0.13 -2.03c-0.07,-1.04 -0.3,-1.71 -0.67,-2.02 -0.38,-0.31 -1.32,-0.46 -2.83,-0.46l-3.46 0 0 6.65 -2.12 0 0 -15.53zm28.32 9.07l4.91 0 -2.44 -6.85 -2.47 6.85zm-4.55 6.46l5.85 -15.53 2.36 0 5.87 15.53 -2.32 0 -1.67 -4.64 -6.2 0 -1.68 4.64 -2.22 0zm29.38 0l0 -13.65 -4.97 0 0 -1.88 12.09 0 0 1.88 -4.97 0 0 13.65 -2.15 0zm20.04 0l0 -15.53 2.15 0 0 15.53 -2.15 0zm18.09 -7.75c0,1.99 0.46,3.55 1.39,4.67 0.93,1.12 2.22,1.68 3.86,1.68 1.64,0 2.92,-0.56 3.85,-1.68 0.92,-1.12 1.38,-2.68 1.38,-4.67 0,-2 -0.46,-3.56 -1.38,-4.67 -0.92,-1.12 -2.2,-1.68 -3.85,-1.68 -1.65,0 -2.93,0.56 -3.86,1.68 -0.93,1.12 -1.39,2.67 -1.39,4.67zm-2.21 0c0,-2.57 0.66,-4.57 1.98,-6.02 1.32,-1.44 3.15,-2.17 5.49,-2.17 2.33,0 4.15,0.72 5.47,2.16 1.31,1.44 1.97,3.45 1.97,6.02 0,2.56 -0.66,4.57 -1.97,6.02 -1.32,1.44 -3.14,2.17 -5.47,2.17 -2.34,0 -4.16,-0.72 -5.49,-2.17 -1.32,-1.45 -1.98,-3.45 -1.98,-6.02zm28.56 7.75l0 -15.53 2.34 0 7.36 11.28c0.16,0.24 0.31,0.47 0.43,0.69 0.12,0.22 0.22,0.42 0.29,0.61l0 -12.59 2.04 0 0 15.53 -2.32 0 -7.51 -11.44c-0.11,-0.17 -0.22,-0.36 -0.31,-0.55 -0.1,-0.19 -0.19,-0.39 -0.27,-0.6l0 12.58 -2.04 0z"/>
    </g>
   </g>
  </g>
 </g>
</svg>
